<mxfile host="app.diagrams.net" agent="Mozilla/5.0 (Windows NT 10.0; Win64; x64; rv:132.0) Gecko/20100101 Firefox/132.0" version="24.9.1">
  <diagram name="PÃ¡gina-1" id="155O_ikBOG4zDQ472JfR">
    <mxGraphModel dx="1434" dy="745" grid="1" gridSize="10" guides="1" tooltips="1" connect="1" arrows="1" fold="1" page="1" pageScale="1" pageWidth="827" pageHeight="1169" math="0" shadow="0">
      <root>
        <mxCell id="0" />
        <mxCell id="1" parent="0" />
        <mxCell id="g3ka90zAT41H2lFVtZtm-1" value="" style="ellipse;html=1;shape=startState;fillColor=#000000;strokeColor=#ff0000;" vertex="1" parent="1">
          <mxGeometry x="205" y="175" width="30" height="30" as="geometry" />
        </mxCell>
        <mxCell id="g3ka90zAT41H2lFVtZtm-2" value="" style="edgeStyle=orthogonalEdgeStyle;html=1;verticalAlign=bottom;endArrow=open;endSize=8;strokeColor=#ff0000;rounded=0;entryX=0.5;entryY=0;entryDx=0;entryDy=0;" edge="1" parent="1" source="g3ka90zAT41H2lFVtZtm-1" target="g3ka90zAT41H2lFVtZtm-5">
          <mxGeometry relative="1" as="geometry">
            <mxPoint x="215" y="270" as="targetPoint" />
          </mxGeometry>
        </mxCell>
        <mxCell id="g3ka90zAT41H2lFVtZtm-4" value="User select his faction" style="shape=note;whiteSpace=wrap;html=1;backgroundOutline=1;darkOpacity=0.05;" vertex="1" parent="1">
          <mxGeometry x="100" y="140" width="80" height="100" as="geometry" />
        </mxCell>
        <mxCell id="g3ka90zAT41H2lFVtZtm-5" value="dificulty easy ?" style="rhombus;whiteSpace=wrap;html=1;fontColor=#000000;fillColor=#ffffc0;strokeColor=#ff0000;" vertex="1" parent="1">
          <mxGeometry x="170" y="270" width="100" height="50" as="geometry" />
        </mxCell>
        <mxCell id="g3ka90zAT41H2lFVtZtm-6" value="no" style="edgeStyle=orthogonalEdgeStyle;html=1;align=left;verticalAlign=bottom;endArrow=open;endSize=8;strokeColor=#ff0000;rounded=0;entryX=0;entryY=0.5;entryDx=0;entryDy=0;" edge="1" parent="1" source="g3ka90zAT41H2lFVtZtm-5" target="g3ka90zAT41H2lFVtZtm-24">
          <mxGeometry x="-1" relative="1" as="geometry">
            <mxPoint x="310" y="290" as="targetPoint" />
          </mxGeometry>
        </mxCell>
        <mxCell id="g3ka90zAT41H2lFVtZtm-7" value="yes" style="edgeStyle=orthogonalEdgeStyle;html=1;align=left;verticalAlign=top;endArrow=open;endSize=8;strokeColor=#ff0000;rounded=0;entryX=0.5;entryY=0;entryDx=0;entryDy=0;" edge="1" parent="1" source="g3ka90zAT41H2lFVtZtm-5" target="g3ka90zAT41H2lFVtZtm-20">
          <mxGeometry x="-1" relative="1" as="geometry">
            <mxPoint x="210" y="370" as="targetPoint" />
          </mxGeometry>
        </mxCell>
        <mxCell id="g3ka90zAT41H2lFVtZtm-20" value="Set dificulty easy" style="rounded=1;whiteSpace=wrap;html=1;arcSize=40;fontColor=#000000;fillColor=#ffffc0;strokeColor=#ff0000;" vertex="1" parent="1">
          <mxGeometry x="160" y="390" width="120" height="40" as="geometry" />
        </mxCell>
        <mxCell id="g3ka90zAT41H2lFVtZtm-21" value="" style="edgeStyle=orthogonalEdgeStyle;html=1;verticalAlign=bottom;endArrow=open;endSize=8;strokeColor=#ff0000;rounded=0;" edge="1" source="g3ka90zAT41H2lFVtZtm-20" parent="1" target="g3ka90zAT41H2lFVtZtm-22">
          <mxGeometry relative="1" as="geometry">
            <mxPoint x="180" y="560" as="targetPoint" />
          </mxGeometry>
        </mxCell>
        <mxCell id="g3ka90zAT41H2lFVtZtm-22" value="" style="ellipse;html=1;shape=endState;fillColor=#000000;strokeColor=#ff0000;" vertex="1" parent="1">
          <mxGeometry x="205" y="480" width="30" height="30" as="geometry" />
        </mxCell>
        <mxCell id="g3ka90zAT41H2lFVtZtm-24" value="dificulty medium?" style="rhombus;whiteSpace=wrap;html=1;fontColor=#000000;fillColor=#ffffc0;strokeColor=#ff0000;" vertex="1" parent="1">
          <mxGeometry x="320" y="272.5" width="96" height="45" as="geometry" />
        </mxCell>
        <mxCell id="g3ka90zAT41H2lFVtZtm-25" value="no" style="edgeStyle=orthogonalEdgeStyle;html=1;align=left;verticalAlign=bottom;endArrow=open;endSize=8;strokeColor=#ff0000;rounded=0;entryX=0;entryY=0.5;entryDx=0;entryDy=0;" edge="1" source="g3ka90zAT41H2lFVtZtm-24" parent="1" target="g3ka90zAT41H2lFVtZtm-30">
          <mxGeometry x="-1" relative="1" as="geometry">
            <mxPoint x="504" y="300" as="targetPoint" />
          </mxGeometry>
        </mxCell>
        <mxCell id="g3ka90zAT41H2lFVtZtm-26" value="yes" style="edgeStyle=orthogonalEdgeStyle;html=1;align=left;verticalAlign=top;endArrow=open;endSize=8;strokeColor=#ff0000;rounded=0;entryX=0.5;entryY=0;entryDx=0;entryDy=0;" edge="1" source="g3ka90zAT41H2lFVtZtm-24" parent="1" target="g3ka90zAT41H2lFVtZtm-27">
          <mxGeometry x="1" y="28" relative="1" as="geometry">
            <mxPoint x="364" y="380" as="targetPoint" />
            <mxPoint x="-2" y="10" as="offset" />
          </mxGeometry>
        </mxCell>
        <mxCell id="g3ka90zAT41H2lFVtZtm-27" value="Set dificulty medium" style="rounded=1;whiteSpace=wrap;html=1;arcSize=40;fontColor=#000000;fillColor=#ffffc0;strokeColor=#ff0000;" vertex="1" parent="1">
          <mxGeometry x="308" y="390" width="120" height="40" as="geometry" />
        </mxCell>
        <mxCell id="g3ka90zAT41H2lFVtZtm-28" value="" style="edgeStyle=orthogonalEdgeStyle;html=1;verticalAlign=bottom;endArrow=open;endSize=8;strokeColor=#ff0000;rounded=0;" edge="1" parent="1" source="g3ka90zAT41H2lFVtZtm-27" target="g3ka90zAT41H2lFVtZtm-29">
          <mxGeometry relative="1" as="geometry">
            <mxPoint x="328" y="560" as="targetPoint" />
          </mxGeometry>
        </mxCell>
        <mxCell id="g3ka90zAT41H2lFVtZtm-29" value="" style="ellipse;html=1;shape=endState;fillColor=#000000;strokeColor=#ff0000;" vertex="1" parent="1">
          <mxGeometry x="353" y="480" width="30" height="30" as="geometry" />
        </mxCell>
        <mxCell id="g3ka90zAT41H2lFVtZtm-30" value="Set dificulty hard" style="rounded=1;whiteSpace=wrap;html=1;arcSize=40;fontColor=#000000;fillColor=#ffffc0;strokeColor=#ff0000;" vertex="1" parent="1">
          <mxGeometry x="480" y="275" width="120" height="40" as="geometry" />
        </mxCell>
        <mxCell id="g3ka90zAT41H2lFVtZtm-31" value="" style="edgeStyle=orthogonalEdgeStyle;html=1;verticalAlign=bottom;endArrow=open;endSize=8;strokeColor=#ff0000;rounded=0;exitX=0.5;exitY=1;exitDx=0;exitDy=0;" edge="1" source="g3ka90zAT41H2lFVtZtm-30" parent="1" target="g3ka90zAT41H2lFVtZtm-33">
          <mxGeometry relative="1" as="geometry">
            <mxPoint x="510" y="630" as="targetPoint" />
            <mxPoint x="630" y="560" as="sourcePoint" />
          </mxGeometry>
        </mxCell>
        <mxCell id="g3ka90zAT41H2lFVtZtm-33" value="" style="ellipse;html=1;shape=endState;fillColor=#000000;strokeColor=#ff0000;" vertex="1" parent="1">
          <mxGeometry x="525" y="390" width="30" height="30" as="geometry" />
        </mxCell>
      </root>
    </mxGraphModel>
  </diagram>
</mxfile>
